<?xml version="1.0" standalone="no"?><!DOCTYPE svg PUBLIC "-//W3C//DTD SVG 1.1//EN" "http://www.w3.org/Graphics/SVG/1.1/DTD/svg11.dtd"><svg t="1617884960977" class="icon" viewBox="0 0 1024 1024" version="1.1" xmlns="http://www.w3.org/2000/svg" p-id="1019" width="128" height="128" data-spm-anchor-id="a313x.7781069.0.i18" xmlns:xlink="http://www.w3.org/1999/xlink"><defs><style type="text/css"></style></defs><path d="M637.525941 175.840488h180.840692c42.918413 0 77.711495 34.793082 77.711495 77.503154v517.104374c0 42.918413-34.793082 77.711495-77.711495 77.711496H637.525941V175.840488z" fill="#5a9cef" p-id="1020" data-spm-anchor-id="a313x.7781069.0.i6" class="selected"></path><path d="M456.476907 175.840488H637.525941v672.319024H456.476907c-42.710071 0-77.503154-34.793082-77.503153-77.711496V253.343642c0-42.710071 34.584741-77.503154 77.503153-77.503154z" fill="#9aedf2" p-id="1021" data-spm-anchor-id="a313x.7781069.0.i3" class=""></path><path d="M637.525941 434.184334c27.917803 0 50.62706 22.709257 50.62706 50.62706 0 19.375788-11.042116 36.251475-27.084435 44.793489v68.752798c0 12.917192-10.625432 23.334283-23.334283 23.334282-12.917192 0-23.334283-10.625432-23.334283-23.334282v-68.752798c-16.042319-8.542014-27.084435-25.417701-27.084435-44.793489-0.416684-27.917803 22.292574-50.62706 50.210376-50.62706z" fill="#e6e6e6" p-id="1022" data-spm-anchor-id="a313x.7781069.0.i20" class=""></path><path d="M127.921872 520.646185c0-79.586572 52.085453-143.964191 116.463072-143.964191 48.751984 0 90.420346 37.084842 107.921058 89.586979h236.259613c6.250254 0 12.292167 2.708444 16.459004 7.291963l32.29298 32.292981c3.958494 4.375178 5.833571 9.583723 5.833571 15.00061 0 5.416887-1.875076 10.833774-5.833571 15.00061l-32.29298 31.876297c-4.166836 4.58352-10.208749 7.291963-16.459004 7.291964h-24.16765c-6.041913 0-11.667141-2.29176-15.833977-6.458596l-16.250661-16.250662-16.250662 16.250662c-4.166836 4.166836-9.792065 6.458596-15.833977 6.458596h-28.126145c-5.833571 0-11.667141-2.29176-15.833977-6.458596l-16.250662-16.250662-16.250661 16.250662c-4.166836 4.166836-9.792065 6.458596-15.833977 6.458596h-55.627264c-17.29237 52.502136-59.169074 89.586979-107.921058 89.586978-64.169278 0-116.463072-64.585961-116.463072-143.964191z m85.2118 47.085249c17.29237 0 31.251272-21.042523 31.251272-47.293591 0-26.042726-13.958901-47.293591-31.251272-47.293591s-31.251272 21.042523-31.251271 47.293591 13.958901 47.293591 31.251271 47.293591z" fill="#88b9f6" p-id="1023" data-spm-anchor-id="a313x.7781069.0.i10" class=""></path></svg>